<svg xmlns="http://www.w3.org/2000/svg" width="32" height="32" shape-rendering="crispEdges" viewBox="0 0 32 32"><path fill="#a54c26" d="M0 0h32v32H0z"/><path fill="#702b0d" d="M4 12h4v4H4zm16 4h4v4h-4zm-8 8h4v4h-4zm16 4h4v4h-4zM8 20h4v4H8zm16-10h2v2h-2zM2 28h2v2H2z"/><path fill="#59b24f" d="M0 0h32v4H0z"/><path fill="#2bd44a" d="M4 0h4v2H4zm8 2h2v2h-2zm8-2h4v2h-4zm8 2h2v2h-2z"/><path fill="#148529" d="M8 0h2v2H8zm16 2h2v2h-2zM0 2h2v2H0z"/><path fill="#59b24f" d="M0 4h4v4H0zm8 0h4v2H8zm4 0h4v6h-4zm8 0h4v4h-4zm8 0h4v2h-4z"/><path fill="#148529" d="M12 8h4v2h-4zM0 6h4v2H0z"/></svg>