<svg xmlns="http://www.w3.org/2000/svg" width="2381" height="978" fill="none" viewBox="0 0 2381 978"><path fill="#f2f7fd" d="M1474.5 0h-252v20.5H1126v33h-62V83h-62.5v33.5H939V146h-32.5v33l-29.5-.5v30H628.5V244h-63v29H533v30.5h-33.5V337H470v58.5h-33V553h-62v18.5h-62.5v30l-59.5-2v34h-31.5V662h-65v31.5H60V726H30.5v32.5l-30.5.151V855h30.5v32h33v30l284 1.5v-31H410V855h27.5v32H470v29.5l282.5 1.989V887H815v31.489l62 .01V949h91.5v29h351v-29h89v-31h94.5v-31h30.5v29h28.5v29.5h97v32h188v-29h62V918h63.5v-33h62.5v33h281.5v-31.5h33.5v-33h30v-95h-29.5V725H2288v-29.5h-33v-33h-29.5v-29h-33v-33h-62v-77H2097v-95h-29v-33h-32.5V366H2006v-29h-62.5v-33h-187v-62.5l-31-1V179H1691v-32.5h-29.5V113H1631V83h-32V53.5h-62.5V22h-62z"/><path fill="#d8e1e8" d="M1660 429h31.5v-29h31v-32.5h61v-31h32.5V304h-59.5v-62.5l-31-1V179H1691v-32.5h-29.5V113H1631V83h-32V53.5h-62.5V83h29v30h32.5c-.8 0-.33 24.333 0 36.5h33v29h29v62h31.5V336l-60.5.5V400h-65.5v29h-32v-29H1472v-32.5h-31V336h-61.5v-31.5h-65V336l-91 .5v33l60.5-2V381h30.5v18h32v30h33v63h29v-31.5h93.5V492h31.5v29.5h32v-61h94.5zM1222.5 0v20.5H1441v33h95.5V22h-62V0zm0 20.5H1126v33h-62V83h96.5V53.5h62z"/><path fill="#d8e1e8" d="M312.5 632.5v-33H253v34h-31.5V662h-65v31.5h33v34h32v31h-32v29h-91v-29H60V726H30.5v32.5H0V855h30.5v32h33v30l284 1.5v-31H410V855h27.5v32H470v29.5l282.5 1.989V887H815v31.489l62 .01V949h91.5v29h351v-29h89v-31h94.5v-31h30.5v29h28.5v29.5h97v32h188v-29h62V918h63.5v-33h62.5v33h281.5v-31.5h33.5v-33h30s.11-73.5 0-95h-29.5V725H2288v-29.5h-33v-33h-29.5v-29h-33v-33h-62v-77H2097v-95h-29v-33h-32.5V366H2006v-29h-62.5v-33H1816v32.5h-32.5v31h-61V400h-31v29H1660v63h62.5v-31.5h31.5V429h29.5v-29h32.5v-32.5h125V400h32v29h29.5v31.5h32V555h-32c.33 5 .8 15 0 15-1 0-29.5.5-29.5 0v32h-32v30.5h-32V665h-62v28.5h-93V665h-31.5v-18.5h-31v47H1628V665h-32v-32.5h-249.5v-46h-32v-16H1284V600c-10.33.167-31 .4-31 0v65h-32v28.5h-122.5V662H1065v-28.5l-92-1v-15h-32.5v-31h-30v-47h30v-18h-95v48H815v17h-33.5v13h-29v33l-31.5 1V662h-30.5v31.5H519V662H378v31.5h-31.5v34H285v31h-32v-31h32v-34h-32V662h32v-29.5z"/><path fill="#d8e1e8" d="M60 693.5V726h38.5v-32.5zM1064 116V83h-62.5v33.5H939V146h-32.5v32.5H877v30c-82.833.667-248.5 0-248.5 0V244h-63v29H533v30.5h-33.5V337H470v58.5h-33V553h-62v18.5h-62.5v28H408V570h64v16.5h30.5v50h126v-37h-63v-46H505V492h-33v-63h33v-59.5h28V336h32.5v-33.5h31V273H662v-29h186.5v29h62v29.5H940V336h33v33.5h29V399h33.5v-29.5h95V336h-95v-33.5H1002V273h-29v-32.5h-33v-62h33v-29h61V116z"/><path fill="#bcc5ce" d="M2006 760.5h-96v32h-29V822h-220v-28h-61v-33h-64v-28.5h-33v-34h-29V669h-29.5v29.5H1382v34h62.5V761H1411v33h-62.5v28h-92v31.5H1037V822h-95v-28.5h-62V761h-63v-30.5h-28.5v-33H817v-30h34v-31h-62.5v31H754v30c-10.167.333-30.5.8-30.5 0V761H662v32.5h-63V822H474.5v-28.5H444V761h-64.5v32.5h-32V822H223v33H101v-33H32v-28.5H0V855h30.5v32h33v30l284 1.5v-31H410V855h27.5v32H470v29.5l282.5 1.989V887H815v31.489l62 .01V949h91.5v29h351c.17-10.167.4-29 0-29h89v-31h94.5v-31h30.5v29h28.5v29.5h97v32h188v-29h62V918h63.5v-33h62.5v33h281.5v-31.5h33.5v-33h30V793h-30v30c-10 .5-30 1.2-30 0v32.5h-220v-33h-61.5v-30H2006zm-1561-234h91.5v73H600v37h-97.5v-48H472v-17h-27zM1816 304h-88.5v32l-62.5.219V372h-34v28h-29v34.5h-36.5c.4 0 .17 16.833 0 26h94.5V431h32v-29.5h30.5v-34h61v-31h32.5z"/><path fill="#bcc5ce" d="M1910 667.5h-29V731h-29.5v29.5h58.5zm220.5-144H2101V574h-29.5v33H2009v28h92v-34.5h29.5z"/></svg>