<svg width="2381" height="978" viewBox="0 0 2381 978" fill="none" xmlns="http://www.w3.org/2000/svg">
<path d="M1474.5 0H1222.5V20.5H1126V53.5H1064V83H1001.5V116.5H939V146H906.5V179L877 178.5V208.5H628.5V244H565.5V273H533V303.5H499.5V337H470V395.5H437V553H375V571.5H312.5V601.5L253 599.5V633.5H221.5V662H156.5V693.5H60V726H30.5V758.5L0 758.651V855H30.5V887H63.5V917L347.5 918.5V887.5H410V855H437.5V887H470V916.5L752.5 918.489V887H815V918.489L877 918.499V949H968.5V978H1319.5V949H1408.5V918H1503V887H1533.5V916H1562V945.5H1659V977.5H1847V948.5H1909V918H1972.5V885H2035V918H2316.5V886.5H2350V853.5H2380V758.5H2350.5V725H2288V695.5H2255V662.5H2225.5V633.5H2192.5V600.5H2130.5V523.5H2097V428.5H2068V395.5H2035.5V366H2006V337H1943.5V304H1756.5V241.5L1725.5 240.5V179H1691V146.5H1661.5V113H1631V83H1599V53.5H1536.5V22H1474.5V11V0Z" fill="#F2F7FD"/>
<path d="M1660 429H1691.5V400H1722.5V367.5H1783.5V336.5H1816V304H1756.5V241.5L1725.5 240.5V179H1691V146.5H1661.5V113H1631V83H1599V53.5H1536.5V83H1565.5V113H1598C1597.2 113 1597.67 137.333 1598 149.5H1631V178.5H1660V240.5H1691.5V336L1631 336.5L1631 400H1565.5V429H1533.5V400H1472V367.5H1441V336H1379.5V304.5H1314.5V336L1223.5 336.5V369.5L1284 367.5V381H1314.5V399H1346.5V429H1379.5V492H1408.5V460.5H1502V492H1533.5V521.5H1565.5V460.5H1660V429Z" fill="#D8E1E8"/>
<path d="M1222.5 0V20.5H1441V53.5H1536.5V22H1474.5C1474.5 15.5 1474.5 1 1474.5 0H1222.5Z" fill="#D8E1E8"/>
<path d="M1222.5 20.5H1126V53.5H1064V83H1160.5V53.5H1222.5V20.5Z" fill="#D8E1E8"/>
<path d="M312.5 632.5V599.5H253V633.5H221.5V662H156.5V693.5H189.5V727.5H221.5V758.5H189.5V787.5H98.5V758.5H60V726H30.5V758.5H0V855H30.5V887H63.5V917L347.5 918.5V887.5H410V855H437.5V887H470V916.5L752.5 918.489V887H815V918.489L877 918.499V949H968.5V978H1319.5V949H1408.5V918H1503V887H1533.5V916H1562V945.5H1659V977.5H1847V948.5H1909V918H1972.5V885H2035V918H2316.5V886.5H2350V853.5H2380C2380 853.5 2380.11 780 2380 758.5H2350.5V725H2288V695.5H2255V662.5H2225.5V633.5H2192.5C2192.5 600.5 2192.5 600.5 2192.5 600.5H2130.5V523.5H2097V428.5H2068V395.5H2035.5V366H2006V337H1943.5V304H1816V336.5H1783.5V367.5H1722.5V400H1691.5V429H1660V460.5V492H1722.5V460.5H1754V429H1783.5V400H1816V367.5H1941V400H1973V429H2002.5V460.5H2034.5V555H2002.5C2002.83 560 2003.3 570 2002.5 570C2001.5 570 1973 570.5 1973 570V602H1941V632.5H1909V665H1847V693.5H1754V665H1722.5V646.5H1691.5V693.5H1628V665H1596V632.5H1346.5V586.5H1314.5V570.5H1284V600C1273.67 600.167 1253 600.4 1253 600V665H1221V693.5H1098.5V662H1065V633.5L973 632.5V617.5H940.5V586.5H910.5V539.5H940.5V521.5H845.5V569.5H815V586.5H781.5V599.5H752.5V632.5L721 633.5V662H690.5V693.5H519V662H378V693.5H346.5V727.5H285V758.5H253V727.5H285V693.5H253V662H285V632.5H312.5Z" fill="#D8E1E8"/>
<path d="M60 693.5V726H98.5V693.5H60Z" fill="#D8E1E8"/>
<path d="M1064 116V83H1001.5V116.5H939V146H906.5V178.5H877V208.5C794.167 209.167 628.5 208.5 628.5 208.5V244H565.5V273H533V303.5H499.5V337H470V395.5H437V553H375V571.5H312.5V599.5H408V570H472V586.5H502.5V636.5H628.5V599.5H565.5V553.5H505V492H472V429H505V369.5H533V336H565.5V302.5H596.5V273H662V244H848.5V273H910.5V302.5H940V336H973V369.5H1002V399H1035.5V369.5H1130.5V336H1035.5V302.5H1002V273H973V240.5H940V178.5H973V149.5H1034V116H1064Z" fill="#D8E1E8"/>
<path d="M2006 760.5H1910V792.5H1881V822H1661V794H1600V761H1536V732.5H1503V698.5H1474V669H1444.5V698.5H1382V732.5H1444.5V761H1411V794H1348.5V822H1256.5V853.5H1037V822H942V793.5H880V761H817V730.5H788.5V697.5H817V667.5H851V636.5H788.5V667.5H754V697.5C743.833 697.833 723.5 698.3 723.5 697.5V761H662V793.5H599V822H474.5V793.5H444V761H379.5V793.5H347.5V822H223V855H101V822H32V793.5H0V855H30.5V887H63.5V917L347.5 918.5V887.5H410V855H437.5V887H470V916.5L752.5 918.489V887H815V918.489L877 918.499V949H968.5V978H1319.5C1319.67 967.833 1319.9 949 1319.5 949H1408.5V918H1503V887H1533.5V916H1562V945.5H1659V977.5H1847V948.5H1909V918H1972.5V885H2035V918H2316.5V886.5H2350V853.5H2380V793H2350V823C2340 823.5 2320 824.2 2320 823V855.5H2100V822.5H2038.5V792.5H2006V760.5Z" fill="#BCC5CE"/>
<path d="M445 526.5H536.5V599.5H600V636.5H502.5V588.5H472V571.5H445V526.5Z" fill="#BCC5CE"/>
<path d="M1816 304H1727.5V336L1665 336.219V372H1631V400H1602V434.5H1565.5C1565.9 434.5 1565.67 451.333 1565.5 460.5H1660V431H1692V401.5H1722.5V367.5H1783.5V336.5H1816V304Z" fill="#BCC5CE"/>
<path d="M1910 667.5H1881V731H1851.5V760.5H1910V667.5Z" fill="#BCC5CE"/>
<path d="M2130.5 523.5H2101V574H2071.5V607H2009V635H2101V600.5H2130.5V523.5Z" fill="#BCC5CE"/>
</svg>
